# xmcd
#
# Track frame offsets: 
#        150
#        12900
#        24664
#        41252
#        59014
#        72017
#        87273
#        103702
#        120600
#        139301
#        154249
#        175055
#        192421
#        208003
#
# Disc length: 2945 seconds
#
# Revision: 0
# Processed by: cddbd v1.5.2PL0 Copyright (c) Steve Scherf et al.
# Submitted via: ExactAudioCopy v0.99pb5
#
DISCID=c20b7f0e
DTITLE=Parris - Please Excuse My French
DYEAR=2012
DGENRE=Rap
TTITLE0=Intro
TTITLE1=No Strings
TTITLE2=Make A Million Ft Tone Goody
TTITLE3=Right Now Ft Leamber
TTITLE4=Damaged Ft Billy
TTITLE5=Money Or Me Ft Kaz Lil Daddy and Boosie Dre
TTITLE6=Head Dumb FT Lil Scoot and Yella
TTITLE7=2 Of A Kind Ftlil Skypp and Billy JE
TTITLE8=Long Day Ft Tone Goody and Skypp
TTITLE9=No Good FT Joka Slaughta Boy
TTITLE10=Let Me Know Ft DRew Ily
TTITLE11=Boss Bitch
TTITLE12=See Ya Later
TTITLE13=Maxie Remix Ft Leamber
EXTD=
EXTT0=
EXTT1=
EXTT2=
EXTT3=
EXTT4=
EXTT5=
EXTT6=
EXTT7=
EXTT8=
EXTT9=
EXTT10=
EXTT11=
EXTT12=
EXTT13=
PLAYORDER=
